{"title":"Cinderella.1950.SRsink.BRRip.XviD-zar.avi","uid":11650702,"size":748381238,"categoryP":"video","categoryS":"movies","magnet":"?xt=urn:btih:555800c010c79830662bc765936a78dd9588914e&amp;dn=Cinderella.1950.SRsink.BRRip.XviD-zar.avi&amp;tr=udp%3A%2F%2Ftracker.openbittorrent.com%3A80&amp;tr=udp%3A%2F%2Fopen.demonii.com%3A1337&amp;tr=udp%3A%2F%2Ftracker.coppersurfer.tk%3A6969&amp;tr=udp%3A%2F%2Fexodus.desync.com%3A6969","seeders":1,"leechers":0,"uploader":"stzar","files":1,"time":1417870889,"description":"General\nFormat                         : AVI\nFormat/Info                    : Audio Video Interleave\nFile size                      : 714 MiB\nDuration                       : 1h 14mn\nOverall bit rate               : 1 340 Kbps\nWriting application            : Lavf51.12.1\n\nVideo\nID                             : 0\nFormat                         : xvid\nCodec ID                       : xvid\nDuration                       : 1h 14mn\nBit rate                       : 1 200 Kbps\nWidth                          : 856 pixels\nHeight                         : 480 pixels\nDisplay aspect ratio           : 16:9\nFrame rate                     : 23.976 fps\nBits/(Pixel*Frame)             : 0.122\nStream size                    : 639 MiB (90%)\n\nAudio\nID                             : 1\nFormat                         : MPEG Audio\nFormat version                 : Version 1\nFormat profile                 : Layer 3\nMode                           : Joint stereo\nMode extension                 : MS Stereo\nCodec ID                       : 55\nCodec ID/Hint                  : MP3\nDuration                       : 1h 14mn\nBit rate mode                  : Constant\nBit rate                       : 128 Kbps\nChannel(s)                     : 2 channels\nSampling rate                  : 44.1 KHz\nCompression mode               : Lossy\nStream size                    : 68.0 MiB (10%)","torrent":{"xt":"urn:btih:555800c010c79830662bc765936a78dd9588914e","amp;dn":"Cinderella.1950.SRsink.BRRip.XviD-zar.avi","amp;tr":["udp%3A%2F%2Ftracker.openbittorrent.com%3A80","udp%3A%2F%2Fopen.demonii.com%3A1337","udp%3A%2F%2Ftracker.coppersurfer.tk%3A6969","udp%3A%2F%2Fexodus.desync.com%3A6969"],"infoHash":"555800c010c79830662bc765936a78dd9588914e","infoHashBuffer":{"type":"Buffer","data":[85,88,0,192,16,199,152,48,102,43,199,101,147,106,120,221,149,136,145,78]},"announce":[],"urlList":[]}}